<svg xmlns="http://www.w3.org/2000/svg" id="LendingTree_Logo" version="1.1" viewBox="0 0 131.4 48"><defs><linearGradient id="linear-gradient" x1="50.25" x2="67" y1="-884.9" y2="-868.16" gradientTransform="matrix(1 0 0 -1 0 -862)" gradientUnits="userSpaceOnUse"><stop offset=".05" stop-color="#078181"/><stop offset=".21" stop-color="#07997d"/><stop offset=".41" stop-color="#08af7a"/><stop offset=".6" stop-color="#08bc78"/><stop offset=".77" stop-color="#08c177"/></linearGradient><style>.st1{fill:#fff}</style></defs><g id="Registered_Trademark"><path d="M126.18 25.02c-.12-.21-.29-.38-.5-.5-.41-.23-.92-.23-1.33 0-.21.11-.39.29-.5.5a1.356 1.356 0 102.35 0h-.01zm-.23 1.22c-.09.17-.23.31-.4.4-.33.19-.75.19-1.08 0a.964.964 0 01-.4-.4c-.19-.34-.19-.75 0-1.09.09-.17.23-.31.4-.4.33-.19.74-.19 1.07 0 .17.09.31.23.4.4.2.34.2.75 0 1.09z" class="st1"/><path d="M125.48 26.1c-.06-.1-.09-.16-.1-.17-.03-.04-.06-.08-.09-.11-.03-.02-.06-.04-.1-.05.11 0 .21-.06.29-.13.07-.07.1-.16.1-.26 0-.07-.02-.14-.05-.2a.325.325 0 00-.13-.13.794.794 0 00-.22-.06h-.73v1.4h.29v-.57s.18-.01.25.06c.08.08.15.18.2.29l.12.23h.35l-.15-.28zm-.76-.52v-.37h.4c.04 0 .16.03.16.18 0 .08-.07.15-.14.17h-.42z" class="st1"/></g><path d="M123.6 30.9c0-2.2-.5-3.9-1.5-5.1s-2.5-1.8-4.5-1.8-3.5.6-4.6 1.8c-1.1 1.2-1.6 3-1.6 5.3-.1 1.3.3 2.6.9 3.8.5 1 1.4 1.8 2.4 2.3s2.2.7 3.3.7c.9 0 1.7-.1 2.5-.3s1.4-.6 2.1-1c.2-.1.3-.3.3-.5 0-.1 0-.3-.1-.4l-.5-1.1c-.1-.3-.3-.4-.5-.4-.1 0-.3.1-.4.1-.9.6-2 .9-3.1.9-1.2 0-2.1-.3-2.7-.9-.6-.6-1-1.4-1-2.3h8.1c.3.1.9-.1.9-1.1zm-9-1.2c0-.8.3-1.6.8-2.2s1.3-.9 2.3-.9 1.7.3 2.2.8c.5.6.7 1.4.7 2.2h-6v.1zM104.3 24c-2 0-3.5.6-4.6 1.8-1.1 1.2-1.6 3-1.6 5.3-.1 1.3.3 2.6.9 3.8.5 1 1.4 1.8 2.4 2.3s2.2.7 3.3.7c.9 0 1.7-.1 2.5-.3s1.4-.6 2.1-1c.2-.1.3-.3.3-.5 0-.1 0-.3-.1-.4l-.5-1.1c-.1-.3-.3-.4-.5-.4-.1 0-.3.1-.4.1-.9.6-2 .9-3.1.9-1.2 0-2.1-.3-2.7-.9-.6-.6-1-1.4-1-2.3h8.1c.3 0 1-.1 1-1.2 0-2.2-.5-3.9-1.5-5.1s-2.7-1.7-4.6-1.7zm2.9 5.7h-5.9c0-.8.3-1.6.8-2.2s1.3-.9 2.3-.9 1.7.3 2.2.8c.3.7.6 1.5.6 2.3zm-8.7-4.4v-.4c-.1-.1-.1-.3-.3-.3-.5-.4-2-.4-2.4-.4-.3 0-1.3 0-3.4.6-.1-.2-.3-.3-.5-.3h-1.5c-.3 0-.5.1-.7.3-.1.2-.2.5-.1.7v10.9c0 .3.1.6.3.9.2.2.5.3.8.3h1.2c.3 0 .6-.1.8-.3.3-.3.3-.6.3-.9v-9c.8-.3 1.7-.4 2.5-.4h.3c.3 0 .7.1 1 .3l.2.1h.1c.2 0 .4-.2.5-.4l.9-1.7zm-10.3-.6c-.2-.2-.5-.3-.8-.3h-2.3V21c0-.3-.1-.6-.2-.8-.2-.2-.5-.3-.8-.3h-1.4c-.3 0-.6.1-.8.3-.2.2-.2.5-.2.8v12c0 3.9 2.4 4.7 3.7 4.9.4.1.7-.2.8-.6v-1.9c0-.2-.1-.5-.3-.6-.1-.1-.3-.2-.4-.3-.2-.3-.3-.9-.3-1.6v-5.6h2.3c.3 0 .6-.1.8-.3.1-.3.2-.5.2-.8v-.7c-.1-.2-.2-.5-.3-.8zm-10.6-.2c-1-.3-2-.5-3-.5-2.2 0-3.9.6-5.1 1.8-1.2 1.2-1.8 3-1.8 5.3 0 2 .5 3.6 1.5 4.7s2.4 1.7 4.1 1.7c.7 0 1.5-.1 2.1-.4.4-.2.8-.5 1.2-.8-.1 1-.3 1.7-.6 2.1-.4.6-1 .9-2 .9-.8 0-1.7-.1-2.5-.4-.2-.1-.5 0-.6.3v.1l-.1 1.9c0 .2.1.4.3.5 1 .3 2 .4 3 .4 2 0 3.4-.6 4.4-1.9s1.4-3 1.4-5.2v-9.4c-.6-.4-1.4-.8-2.3-1.1zm-.9 2.9V32c0 .7-.2 1.4-.7 2-.5.5-1.2.8-1.9.7-1 0-1.7-.3-2.2-.9-.5-.6-.8-1.5-.8-2.8 0-2.7 1.1-4 3.4-4 .5 0 .9 0 1.3.1.3 0 .7.1.9.3zM62.2 24c-1.2 0-2.5.2-3.6.5l-.6.2c-.1-.2-.3-.3-.5-.3H56c-.3 0-.5.1-.7.3-.1.2-.2.5-.1.7v11c0 .3.1.6.3.9.2.2.5.3.8.3h1.2c.3 0 .6-.1.8-.3.2-.3.3-.5.3-.9v-9c.9-.3 1.8-.4 2.8-.4.7 0 1.2.2 1.5.5s.5.9.5 1.7v7.3c0 .3.1.6.3.9.2.2.5.3.8.3h1.2c.3 0 .6-.1.8-.3.2-.3.3-.5.3-.9V29c0-1.6-.4-2.8-1.2-3.6-1.1-1-2.2-1.4-3.4-1.4zm-9.8.4h-1.2c-.3 0-.6.1-.8.3-.2.3-.3.6-.3.9v10.8c0 .3.1.6.3.9.2.2.5.3.8.3h1.2c.3 0 .6-.1.8-.3.2-.3.3-.5.2-.9V25.6c0-.3-.1-.6-.3-.9-.1-.2-.4-.3-.7-.3zm-4.2-5.5c-1 .4-3 2.1-3 2.5v3.5c-.8-.6-1.8-.9-3.2-.9-1.1 0-2.1.3-3 .9s-1.6 1.5-2 2.5c-.5 1.1-.7 2.4-.7 3.6 0 4.7 2.3 7 6.7 7 1 0 2.1-.2 3.1-.5.8-.3 1.7-.7 2.5-1.1V19.2q0-.1-.1-.2c-.1-.1-.3-.1-.3-.1zm-3 10.4v5.3c-.7.4-1.4.5-2.2.5-1.2 0-2-.3-2.6-.9-.5-.6-.8-1.7-.8-3.1 0-1.3.3-2.3.8-3.1.5-.7 1.3-1.1 2.3-1.1.7 0 1.3.2 1.8.6.4.4.7 1 .7 1.8zM30.6 24c-1.2 0-2.5.2-3.6.5h-.1l-.5.1c-.1-.2-.3-.3-.5-.3h-1.5c-.3 0-.5.1-.7.3-.1.2-.2.5-.1.7v11c0 .3.1.6.3.9.2.2.5.3.8.3h1.2c.3 0 .6-.1.8-.3.2-.3.3-.5.2-.9v-9c.9-.3 1.8-.4 2.8-.4.7 0 1.2.2 1.5.5s.5.9.5 1.7v7.3c0 .3.1.6.3.9.2.2.5.3.8.3H34c.3 0 .6-.1.8-.3.2-.3.2-.6.2-.9v-7.5c0-1.6-.4-2.8-1.2-3.6-.8-.9-2-1.3-3.2-1.3zm-14.4 0c-2 0-3.5.6-4.6 1.8s-1.6 3-1.6 5.3c-.1 1.3.3 2.6.9 3.8.5 1 1.4 1.8 2.4 2.3s2.2.7 3.3.7c.9 0 1.7-.1 2.5-.3s1.4-.6 2.1-1c.2-.1.3-.3.3-.5 0-.1 0-.3-.1-.4l-.5-1.1c-.1-.3-.3-.4-.5-.4-.1 0-.3.1-.4.1-.9.6-2 .9-3.1.9-1.2 0-2.1-.3-2.7-.9-.6-.6-1-1.4-1-2.3h8.1c.3 0 1-.1 1-1.2 0-2.2-.5-4-1.5-5.1-1.1-1-2.6-1.7-4.6-1.7zm2.9 5.7h-6c0-.8.3-1.6.8-2.2s1.3-.9 2.3-.9 1.7.3 2.2.8c.5.7.7 1.5.7 2.3zM8.7 34.6c-.2-.3-.3-.9-.3-1.6V20.4c0-.3-.1-.6-.2-.8-.2-.2-.5-.3-.8-.3H6c-.3 0-.6.1-.8.3-.1.2-.2.5-.2.8v12.7C5 37 7.4 37.8 8.7 38c.4.1.7-.2.8-.5v-1.9c0-.2-.1-.5-.3-.6-.3-.1-.4-.2-.5-.4z" class="st1"/><path d="M66.7 5.9c-.9.1-6.5.7-10.7 1.8-6 1.5-5.8 6.5-5.8 8.4v6.6c0 .1.1.1.1 0 2.5-3.3 5.3-6.4 8.4-9.1-1.8.5-3.5 1.3-5.1 2.2V15c0-3.4 2-4.3 4.3-5 1.9-.5 5.5-.8 5.5-.8s-.3 2.1-.7 6.4c-.3 3.1-2.6 3.8-5.8 3.8h-1.8c-1.4 2.1-1.6 3.3-1.6 3.3H57c6.8 0 8.3-3 8.6-7.4.4-5.5 1-8.7 1.1-9.4z" fill="url(#linear-gradient)"/></svg>